<?xml version="1.0" encoding="UTF-8" standalone="no"?>
<!DOCTYPE svg PUBLIC "-//W3C//DTD SVG 1.1//EN"
 "http://www.w3.org/Graphics/SVG/1.1/DTD/svg11.dtd">
<!-- Generated by graphviz version 2.40.1 (20161225.0304)
 -->
<!-- Title: %3 Pages: 1 -->
<svg width="2448pt" height="548pt"
 viewBox="0.00 0.00 2448.28 548.00" xmlns="http://www.w3.org/2000/svg" xmlns:xlink="http://www.w3.org/1999/xlink">
<g id="graph0" class="graph" transform="scale(1 1) rotate(0) translate(4 544)">
<title>%3</title>
<polygon fill="#ffffff" stroke="transparent" points="-4,4 -4,-544 2444.2814,-544 2444.2814,4 -4,4"/>
<!-- [root] aws_instance.acme&#45;web&#45;server&#45;1 -->
<g id="node1" class="node">
<title>[root] aws_instance.acme&#45;web&#45;server&#45;1</title>
<polygon fill="none" stroke="#000000" points="319.7814,-324 66.7814,-324 66.7814,-288 319.7814,-288 319.7814,-324"/>
<text text-anchor="middle" x="193.2814" y="-302.3" font-family="Times,serif" font-size="14.00" fill="#000000">aws_instance.acme&#45;web&#45;server&#45;1</text>
</g>
<!-- [root] aws_key_pair.acme&#45;key -->
<g id="node3" class="node">
<title>[root] aws_key_pair.acme&#45;key</title>
<polygon fill="none" stroke="#000000" points="1147.7814,-180 962.7814,-180 962.7814,-144 1147.7814,-144 1147.7814,-180"/>
<text text-anchor="middle" x="1055.2814" y="-158.3" font-family="Times,serif" font-size="14.00" fill="#000000">aws_key_pair.acme&#45;key</text>
</g>
<!-- [root] aws_instance.acme&#45;web&#45;server&#45;1&#45;&gt;[root] aws_key_pair.acme&#45;key -->
<g id="edge1" class="edge">
<title>[root] aws_instance.acme&#45;web&#45;server&#45;1&#45;&gt;[root] aws_key_pair.acme&#45;key</title>
<path fill="none" stroke="#000000" d="M277.369,-287.9822C369.3906,-268.6311 521.4022,-237.7389 653.2814,-216 754.5607,-199.3052 870.8373,-184.1148 952.1964,-174.1283"/>
<polygon fill="#000000" stroke="#000000" points="952.9387,-177.5637 962.44,-172.8758 952.0891,-170.6155 952.9387,-177.5637"/>
</g>
<!-- [root] aws_security_group.acme&#45;open&#45;all -->
<g id="node11" class="node">
<title>[root] aws_security_group.acme&#45;open&#45;all</title>
<polygon fill="none" stroke="#000000" points="925.7814,-252 662.7814,-252 662.7814,-216 925.7814,-216 925.7814,-252"/>
<text text-anchor="middle" x="794.2814" y="-230.3" font-family="Times,serif" font-size="14.00" fill="#000000">aws_security_group.acme&#45;open&#45;all</text>
</g>
<!-- [root] aws_instance.acme&#45;web&#45;server&#45;1&#45;&gt;[root] aws_security_group.acme&#45;open&#45;all -->
<g id="edge2" class="edge">
<title>[root] aws_instance.acme&#45;web&#45;server&#45;1&#45;&gt;[root] aws_security_group.acme&#45;open&#45;all</title>
<path fill="none" stroke="#000000" d="M320.1047,-289.0257C322.8548,-288.6785 325.5831,-288.3362 328.2814,-288 437.0606,-274.4464 560.2709,-260.2177 652.668,-249.7703"/>
<polygon fill="#000000" stroke="#000000" points="653.0992,-253.244 662.6431,-248.6436 652.3134,-246.2882 653.0992,-253.244"/>
</g>
<!-- [root] aws_subnet.acme&#45;public -->
<g id="node16" class="node">
<title>[root] aws_subnet.acme&#45;public</title>
<polygon fill="none" stroke="#000000" points="1215.2814,-252 1023.2814,-252 1023.2814,-216 1215.2814,-216 1215.2814,-252"/>
<text text-anchor="middle" x="1119.2814" y="-230.3" font-family="Times,serif" font-size="14.00" fill="#000000">aws_subnet.acme&#45;public</text>
</g>
<!-- [root] aws_instance.acme&#45;web&#45;server&#45;1&#45;&gt;[root] aws_subnet.acme&#45;public -->
<g id="edge3" class="edge">
<title>[root] aws_instance.acme&#45;web&#45;server&#45;1&#45;&gt;[root] aws_subnet.acme&#45;public</title>
<path fill="none" stroke="#000000" d="M320.0818,-288.8185C322.8389,-288.5339 325.5748,-288.2605 328.2814,-288 596.8487,-262.1533 665.2971,-273.0678 934.2814,-252 959.7004,-250.0091 987.0516,-247.5325 1012.7209,-245.0596"/>
<polygon fill="#000000" stroke="#000000" points="1013.2311,-248.5266 1022.8458,-244.0762 1012.5543,-241.5594 1013.2311,-248.5266"/>
</g>
<!-- [root] aws_internet_gateway.acme&#45;ig -->
<g id="node2" class="node">
<title>[root] aws_internet_gateway.acme&#45;ig</title>
<polygon fill="none" stroke="#000000" points="1729.2814,-252 1493.2814,-252 1493.2814,-216 1729.2814,-216 1729.2814,-252"/>
<text text-anchor="middle" x="1611.2814" y="-230.3" font-family="Times,serif" font-size="14.00" fill="#000000">aws_internet_gateway.acme&#45;ig</text>
</g>
<!-- [root] aws_vpc.acme&#45;vpc -->
<g id="node17" class="node">
<title>[root] aws_vpc.acme&#45;vpc</title>
<polygon fill="none" stroke="#000000" points="1557.2814,-180 1407.2814,-180 1407.2814,-144 1557.2814,-144 1557.2814,-180"/>
<text text-anchor="middle" x="1482.2814" y="-158.3" font-family="Times,serif" font-size="14.00" fill="#000000">aws_vpc.acme&#45;vpc</text>
</g>
<!-- [root] aws_internet_gateway.acme&#45;ig&#45;&gt;[root] aws_vpc.acme&#45;vpc -->
<g id="edge4" class="edge">
<title>[root] aws_internet_gateway.acme&#45;ig&#45;&gt;[root] aws_vpc.acme&#45;vpc</title>
<path fill="none" stroke="#000000" d="M1578.7293,-215.8314C1562.0766,-206.5368 1541.6229,-195.1208 1523.8429,-185.1971"/>
<polygon fill="#000000" stroke="#000000" points="1525.261,-181.9803 1514.8232,-180.1628 1521.8494,-188.0927 1525.261,-181.9803"/>
</g>
<!-- [root] provider.aws -->
<g id="node18" class="node">
<title>[root] provider.aws</title>
<polygon fill="none" stroke="#000000" points="1147.2814,-108 1048.2429,-90 1147.2814,-72 1246.3199,-90 1147.2814,-108"/>
<text text-anchor="middle" x="1147.2814" y="-86.3" font-family="Times,serif" font-size="14.00" fill="#000000">provider.aws</text>
</g>
<!-- [root] aws_key_pair.acme&#45;key&#45;&gt;[root] provider.aws -->
<g id="edge5" class="edge">
<title>[root] aws_key_pair.acme&#45;key&#45;&gt;[root] provider.aws</title>
<path fill="none" stroke="#000000" d="M1078.4969,-143.8314C1091.2807,-133.8267 1107.2053,-121.3639 1120.5118,-110.9502"/>
<polygon fill="#000000" stroke="#000000" points="1122.6891,-113.6906 1128.4071,-104.7712 1118.3749,-108.1781 1122.6891,-113.6906"/>
</g>
<!-- [root] aws_network_acl.acme&#45;acl -->
<g id="node4" class="node">
<title>[root] aws_network_acl.acme&#45;acl</title>
<polygon fill="none" stroke="#000000" points="2440.2814,-252 2232.2814,-252 2232.2814,-216 2440.2814,-216 2440.2814,-252"/>
<text text-anchor="middle" x="2336.2814" y="-230.3" font-family="Times,serif" font-size="14.00" fill="#000000">aws_network_acl.acme&#45;acl</text>
</g>
<!-- [root] aws_network_acl.acme&#45;acl&#45;&gt;[root] aws_vpc.acme&#45;vpc -->
<g id="edge6" class="edge">
<title>[root] aws_network_acl.acme&#45;acl&#45;&gt;[root] aws_vpc.acme&#45;vpc</title>
<path fill="none" stroke="#000000" d="M2232.2697,-217.09C2229.2425,-216.7076 2226.2414,-216.343 2223.2814,-216 1986.5597,-188.5711 1705.58,-172.6075 1567.515,-165.8462"/>
<polygon fill="#000000" stroke="#000000" points="1567.5792,-162.3453 1557.4212,-165.3559 1567.2395,-169.3371 1567.5792,-162.3453"/>
</g>
<!-- [root] aws_network_acl_rule.acme&#45;acl&#45;rule -->
<g id="node5" class="node">
<title>[root] aws_network_acl_rule.acme&#45;acl&#45;rule</title>
<polygon fill="none" stroke="#000000" points="2423.7814,-324 2146.7814,-324 2146.7814,-288 2423.7814,-288 2423.7814,-324"/>
<text text-anchor="middle" x="2285.2814" y="-302.3" font-family="Times,serif" font-size="14.00" fill="#000000">aws_network_acl_rule.acme&#45;acl&#45;rule</text>
</g>
<!-- [root] aws_network_acl_rule.acme&#45;acl&#45;rule&#45;&gt;[root] aws_network_acl.acme&#45;acl -->
<g id="edge7" class="edge">
<title>[root] aws_network_acl_rule.acme&#45;acl&#45;rule&#45;&gt;[root] aws_network_acl.acme&#45;acl</title>
<path fill="none" stroke="#000000" d="M2298.1509,-287.8314C2303.965,-279.6232 2310.951,-269.7606 2317.3461,-260.7323"/>
<polygon fill="#000000" stroke="#000000" points="2320.3146,-262.5966 2323.2387,-252.4133 2314.6024,-258.5505 2320.3146,-262.5966"/>
</g>
<!-- [root] aws_route.acme&#45;r&#45;public&#45;to&#45;internet -->
<g id="node6" class="node">
<title>[root] aws_route.acme&#45;r&#45;public&#45;to&#45;internet</title>
<polygon fill="none" stroke="#000000" points="1833.2814,-324 1559.2814,-324 1559.2814,-288 1833.2814,-288 1833.2814,-324"/>
<text text-anchor="middle" x="1696.2814" y="-302.3" font-family="Times,serif" font-size="14.00" fill="#000000">aws_route.acme&#45;r&#45;public&#45;to&#45;internet</text>
</g>
<!-- [root] aws_route.acme&#45;r&#45;public&#45;to&#45;internet&#45;&gt;[root] aws_internet_gateway.acme&#45;ig -->
<g id="edge8" class="edge">
<title>[root] aws_route.acme&#45;r&#45;public&#45;to&#45;internet&#45;&gt;[root] aws_internet_gateway.acme&#45;ig</title>
<path fill="none" stroke="#000000" d="M1674.8323,-287.8314C1664.4637,-279.0485 1651.8585,-268.3712 1640.6169,-258.8489"/>
<polygon fill="#000000" stroke="#000000" points="1642.6164,-255.9556 1632.7237,-252.1628 1638.0919,-261.297 1642.6164,-255.9556"/>
</g>
<!-- [root] aws_route_table.acme&#45;rt&#45;public -->
<g id="node8" class="node">
<title>[root] aws_route_table.acme&#45;rt&#45;public</title>
<polygon fill="none" stroke="#000000" points="1475.2814,-252 1233.2814,-252 1233.2814,-216 1475.2814,-216 1475.2814,-252"/>
<text text-anchor="middle" x="1354.2814" y="-230.3" font-family="Times,serif" font-size="14.00" fill="#000000">aws_route_table.acme&#45;rt&#45;public</text>
</g>
<!-- [root] aws_route.acme&#45;r&#45;public&#45;to&#45;internet&#45;&gt;[root] aws_route_table.acme&#45;rt&#45;public -->
<g id="edge9" class="edge">
<title>[root] aws_route.acme&#45;r&#45;public&#45;to&#45;internet&#45;&gt;[root] aws_route_table.acme&#45;rt&#45;public</title>
<path fill="none" stroke="#000000" d="M1610.4218,-287.9243C1561.5429,-277.634 1500.2036,-264.7205 1449.8063,-254.1105"/>
<polygon fill="#000000" stroke="#000000" points="1450.3862,-250.6559 1439.8797,-252.0207 1448.9441,-257.5058 1450.3862,-250.6559"/>
</g>
<!-- [root] aws_route_table.acme&#45;rt&#45;private -->
<g id="node7" class="node">
<title>[root] aws_route_table.acme&#45;rt&#45;private</title>
<polygon fill="none" stroke="#000000" points="1996.7814,-252 1747.7814,-252 1747.7814,-216 1996.7814,-216 1996.7814,-252"/>
<text text-anchor="middle" x="1872.2814" y="-230.3" font-family="Times,serif" font-size="14.00" fill="#000000">aws_route_table.acme&#45;rt&#45;private</text>
</g>
<!-- [root] aws_route_table.acme&#45;rt&#45;private&#45;&gt;[root] aws_vpc.acme&#45;vpc -->
<g id="edge10" class="edge">
<title>[root] aws_route_table.acme&#45;rt&#45;private&#45;&gt;[root] aws_vpc.acme&#45;vpc</title>
<path fill="none" stroke="#000000" d="M1774.6228,-215.9707C1710.9319,-204.2124 1628.6073,-189.014 1567.5563,-177.7431"/>
<polygon fill="#000000" stroke="#000000" points="1568.0342,-174.2722 1557.5649,-175.8985 1566.7633,-181.1559 1568.0342,-174.2722"/>
</g>
<!-- [root] aws_route_table.acme&#45;rt&#45;public&#45;&gt;[root] aws_vpc.acme&#45;vpc -->
<g id="edge11" class="edge">
<title>[root] aws_route_table.acme&#45;rt&#45;public&#45;&gt;[root] aws_vpc.acme&#45;vpc</title>
<path fill="none" stroke="#000000" d="M1386.5812,-215.8314C1403.1048,-206.5368 1423.4,-195.1208 1441.0421,-185.1971"/>
<polygon fill="#000000" stroke="#000000" points="1442.9921,-188.116 1449.992,-180.1628 1439.5603,-182.015 1442.9921,-188.116"/>
</g>
<!-- [root] aws_route_table_association.private -->
<g id="node9" class="node">
<title>[root] aws_route_table_association.private</title>
<polygon fill="none" stroke="#000000" points="2128.7814,-324 1851.7814,-324 1851.7814,-288 2128.7814,-288 2128.7814,-324"/>
<text text-anchor="middle" x="1990.2814" y="-302.3" font-family="Times,serif" font-size="14.00" fill="#000000">aws_route_table_association.private</text>
</g>
<!-- [root] aws_route_table_association.private&#45;&gt;[root] aws_route_table.acme&#45;rt&#45;private -->
<g id="edge12" class="edge">
<title>[root] aws_route_table_association.private&#45;&gt;[root] aws_route_table.acme&#45;rt&#45;private</title>
<path fill="none" stroke="#000000" d="M1960.505,-287.8314C1945.4121,-278.6221 1926.9058,-267.3301 1910.7472,-257.4706"/>
<polygon fill="#000000" stroke="#000000" points="1912.4077,-254.3838 1902.0483,-252.1628 1908.7617,-260.3593 1912.4077,-254.3838"/>
</g>
<!-- [root] aws_subnet.acme&#45;private -->
<g id="node15" class="node">
<title>[root] aws_subnet.acme&#45;private</title>
<polygon fill="none" stroke="#000000" points="2213.7814,-252 2014.7814,-252 2014.7814,-216 2213.7814,-216 2213.7814,-252"/>
<text text-anchor="middle" x="2114.2814" y="-230.3" font-family="Times,serif" font-size="14.00" fill="#000000">aws_subnet.acme&#45;private</text>
</g>
<!-- [root] aws_route_table_association.private&#45;&gt;[root] aws_subnet.acme&#45;private -->
<g id="edge13" class="edge">
<title>[root] aws_route_table_association.private&#45;&gt;[root] aws_subnet.acme&#45;private</title>
<path fill="none" stroke="#000000" d="M2021.5719,-287.8314C2037.5791,-278.5368 2057.24,-267.1208 2074.3308,-257.1971"/>
<polygon fill="#000000" stroke="#000000" points="2076.1106,-260.211 2083.001,-252.1628 2072.5956,-254.1575 2076.1106,-260.211"/>
</g>
<!-- [root] aws_route_table_association.public -->
<g id="node10" class="node">
<title>[root] aws_route_table_association.public</title>
<polygon fill="none" stroke="#000000" points="1541.2814,-324 1271.2814,-324 1271.2814,-288 1541.2814,-288 1541.2814,-324"/>
<text text-anchor="middle" x="1406.2814" y="-302.3" font-family="Times,serif" font-size="14.00" fill="#000000">aws_route_table_association.public</text>
</g>
<!-- [root] aws_route_table_association.public&#45;&gt;[root] aws_route_table.acme&#45;rt&#45;public -->
<g id="edge14" class="edge">
<title>[root] aws_route_table_association.public&#45;&gt;[root] aws_route_table.acme&#45;rt&#45;public</title>
<path fill="none" stroke="#000000" d="M1393.1596,-287.8314C1387.2315,-279.6232 1380.1085,-269.7606 1373.5881,-260.7323"/>
<polygon fill="#000000" stroke="#000000" points="1376.2722,-258.4708 1367.5799,-252.4133 1370.5975,-262.5693 1376.2722,-258.4708"/>
</g>
<!-- [root] aws_route_table_association.public&#45;&gt;[root] aws_subnet.acme&#45;public -->
<g id="edge15" class="edge">
<title>[root] aws_route_table_association.public&#45;&gt;[root] aws_subnet.acme&#45;public</title>
<path fill="none" stroke="#000000" d="M1334.2297,-287.9243C1293.801,-277.7819 1243.2142,-265.0912 1201.2735,-254.5694"/>
<polygon fill="#000000" stroke="#000000" points="1201.914,-251.1217 1191.3628,-252.0831 1200.2106,-257.9113 1201.914,-251.1217"/>
</g>
<!-- [root] aws_security_group.acme&#45;open&#45;all&#45;&gt;[root] aws_vpc.acme&#45;vpc -->
<g id="edge16" class="edge">
<title>[root] aws_security_group.acme&#45;open&#45;all&#45;&gt;[root] aws_vpc.acme&#45;vpc</title>
<path fill="none" stroke="#000000" d="M926.1207,-220.2029C1064.8824,-205.6813 1279.2063,-183.252 1397.1735,-170.9066"/>
<polygon fill="#000000" stroke="#000000" points="1397.657,-174.3752 1407.2384,-169.8533 1396.9284,-167.4133 1397.657,-174.3752"/>
</g>
<!-- [root] aws_security_group_rule.open&#45;all&#45;in&#45;icmp -->
<g id="node12" class="node">
<title>[root] aws_security_group_rule.open&#45;all&#45;in&#45;icmp</title>
<polygon fill="none" stroke="#000000" points="951.2814,-324 637.2814,-324 637.2814,-288 951.2814,-288 951.2814,-324"/>
<text text-anchor="middle" x="794.2814" y="-302.3" font-family="Times,serif" font-size="14.00" fill="#000000">aws_security_group_rule.open&#45;all&#45;in&#45;icmp</text>
</g>
<!-- [root] aws_security_group_rule.open&#45;all&#45;in&#45;icmp&#45;&gt;[root] aws_security_group.acme&#45;open&#45;all -->
<g id="edge17" class="edge">
<title>[root] aws_security_group_rule.open&#45;all&#45;in&#45;icmp&#45;&gt;[root] aws_security_group.acme&#45;open&#45;all</title>
<path fill="none" stroke="#000000" d="M794.2814,-287.8314C794.2814,-280.131 794.2814,-270.9743 794.2814,-262.4166"/>
<polygon fill="#000000" stroke="#000000" points="797.7815,-262.4132 794.2814,-252.4133 790.7815,-262.4133 797.7815,-262.4132"/>
</g>
<!-- [root] aws_security_group_rule.open&#45;all&#45;out -->
<g id="node13" class="node">
<title>[root] aws_security_group_rule.open&#45;all&#45;out</title>
<polygon fill="none" stroke="#000000" points="1253.2814,-324 969.2814,-324 969.2814,-288 1253.2814,-288 1253.2814,-324"/>
<text text-anchor="middle" x="1111.2814" y="-302.3" font-family="Times,serif" font-size="14.00" fill="#000000">aws_security_group_rule.open&#45;all&#45;out</text>
</g>
<!-- [root] aws_security_group_rule.open&#45;all&#45;out&#45;&gt;[root] aws_security_group.acme&#45;open&#45;all -->
<g id="edge18" class="edge">
<title>[root] aws_security_group_rule.open&#45;all&#45;out&#45;&gt;[root] aws_security_group.acme&#45;open&#45;all</title>
<path fill="none" stroke="#000000" d="M1031.6981,-287.9243C986.581,-277.6769 930.0104,-264.828 883.4079,-254.2432"/>
<polygon fill="#000000" stroke="#000000" points="884.1494,-250.8226 873.6225,-252.0207 882.5989,-257.6487 884.1494,-250.8226"/>
</g>
<!-- [root] aws_security_group_rule.open_all_in -->
<g id="node14" class="node">
<title>[root] aws_security_group_rule.open_all_in</title>
<polygon fill="none" stroke="#000000" points="618.7814,-324 337.7814,-324 337.7814,-288 618.7814,-288 618.7814,-324"/>
<text text-anchor="middle" x="478.2814" y="-302.3" font-family="Times,serif" font-size="14.00" fill="#000000">aws_security_group_rule.open_all_in</text>
</g>
<!-- [root] aws_security_group_rule.open_all_in&#45;&gt;[root] aws_security_group.acme&#45;open&#45;all -->
<g id="edge19" class="edge">
<title>[root] aws_security_group_rule.open_all_in&#45;&gt;[root] aws_security_group.acme&#45;open&#45;all</title>
<path fill="none" stroke="#000000" d="M557.6137,-287.9243C602.5885,-277.6769 658.9806,-264.828 705.4361,-254.2432"/>
<polygon fill="#000000" stroke="#000000" points="706.2181,-257.6548 715.1907,-252.0207 704.663,-250.8298 706.2181,-257.6548"/>
</g>
<!-- [root] aws_subnet.acme&#45;private&#45;&gt;[root] aws_vpc.acme&#45;vpc -->
<g id="edge20" class="edge">
<title>[root] aws_subnet.acme&#45;private&#45;&gt;[root] aws_vpc.acme&#45;vpc</title>
<path fill="none" stroke="#000000" d="M2014.5743,-217.1492C2011.7816,-216.7521 2009.013,-216.368 2006.2814,-216 1852.1236,-195.2309 1671.5031,-178.2227 1567.6328,-169.146"/>
<polygon fill="#000000" stroke="#000000" points="1567.7811,-165.6458 1557.5153,-168.2658 1567.1743,-172.6194 1567.7811,-165.6458"/>
</g>
<!-- [root] aws_subnet.acme&#45;public&#45;&gt;[root] aws_vpc.acme&#45;vpc -->
<g id="edge21" class="edge">
<title>[root] aws_subnet.acme&#45;public&#45;&gt;[root] aws_vpc.acme&#45;vpc</title>
<path fill="none" stroke="#000000" d="M1210.4131,-215.9243C1267.6696,-204.5676 1341.0348,-190.0159 1397.1191,-178.8917"/>
<polygon fill="#000000" stroke="#000000" points="1397.8992,-182.3052 1407.0271,-176.9265 1396.5373,-175.439 1397.8992,-182.3052"/>
</g>
<!-- [root] aws_vpc.acme&#45;vpc&#45;&gt;[root] provider.aws -->
<g id="edge22" class="edge">
<title>[root] aws_vpc.acme&#45;vpc&#45;&gt;[root] provider.aws</title>
<path fill="none" stroke="#000000" d="M1407.1009,-145.8418C1345.1735,-132.532 1258.7623,-113.9601 1202.9143,-101.9569"/>
<polygon fill="#000000" stroke="#000000" points="1203.3669,-98.4743 1192.8547,-99.7948 1201.896,-105.3181 1203.3669,-98.4743"/>
</g>
<!-- [root] var.aws_access_key -->
<g id="node23" class="node">
<title>[root] var.aws_access_key</title>
<ellipse fill="none" stroke="#000000" cx="888.2814" cy="-18" rx="131.8766" ry="18"/>
<text text-anchor="middle" x="888.2814" y="-14.3" font-family="Times,serif" font-size="14.00" fill="#000000">[root] var.aws_access_key</text>
</g>
<!-- [root] provider.aws&#45;&gt;[root] var.aws_access_key -->
<g id="edge42" class="edge">
<title>[root] provider.aws&#45;&gt;[root] var.aws_access_key</title>
<path fill="none" stroke="#000000" d="M1107.9449,-79.0647C1067.8302,-67.9132 1004.8009,-50.3915 956.5268,-36.9717"/>
<polygon fill="#000000" stroke="#000000" points="957.3441,-33.5662 946.772,-34.2599 955.4692,-40.3105 957.3441,-33.5662"/>
</g>
<!-- [root] var.aws_region -->
<g id="node24" class="node">
<title>[root] var.aws_region</title>
<ellipse fill="none" stroke="#000000" cx="1147.2814" cy="-18" rx="109.381" ry="18"/>
<text text-anchor="middle" x="1147.2814" y="-14.3" font-family="Times,serif" font-size="14.00" fill="#000000">[root] var.aws_region</text>
</g>
<!-- [root] provider.aws&#45;&gt;[root] var.aws_region -->
<g id="edge43" class="edge">
<title>[root] provider.aws&#45;&gt;[root] var.aws_region</title>
<path fill="none" stroke="#000000" d="M1147.2814,-71.8314C1147.2814,-64.131 1147.2814,-54.9743 1147.2814,-46.4166"/>
<polygon fill="#000000" stroke="#000000" points="1150.7815,-46.4132 1147.2814,-36.4133 1143.7815,-46.4133 1150.7815,-46.4132"/>
</g>
<!-- [root] var.aws_secret_key -->
<g id="node25" class="node">
<title>[root] var.aws_secret_key</title>
<ellipse fill="none" stroke="#000000" cx="1404.2814" cy="-18" rx="129.9769" ry="18"/>
<text text-anchor="middle" x="1404.2814" y="-14.3" font-family="Times,serif" font-size="14.00" fill="#000000">[root] var.aws_secret_key</text>
</g>
<!-- [root] provider.aws&#45;&gt;[root] var.aws_secret_key -->
<g id="edge44" class="edge">
<title>[root] provider.aws&#45;&gt;[root] var.aws_secret_key</title>
<path fill="none" stroke="#000000" d="M1186.3142,-79.0647C1226.1191,-67.9132 1288.6618,-50.3915 1336.563,-36.9717"/>
<polygon fill="#000000" stroke="#000000" points="1337.5575,-40.3279 1346.2426,-34.2599 1335.6691,-33.5874 1337.5575,-40.3279"/>
</g>
<!-- [root] meta.count&#45;boundary (count boundary fixup) -->
<g id="node19" class="node">
<title>[root] meta.count&#45;boundary (count boundary fixup)</title>
<ellipse fill="none" stroke="#000000" cx="1111.2814" cy="-450" rx="248.0561" ry="18"/>
<text text-anchor="middle" x="1111.2814" y="-446.3" font-family="Times,serif" font-size="14.00" fill="#000000">[root] meta.count&#45;boundary (count boundary fixup)</text>
</g>
<!-- [root] meta.count&#45;boundary (count boundary fixup)&#45;&gt;[root] aws_network_acl_rule.acme&#45;acl&#45;rule -->
<g id="edge23" class="edge">
<title>[root] meta.count&#45;boundary (count boundary fixup)&#45;&gt;[root] aws_network_acl_rule.acme&#45;acl&#45;rule</title>
<path fill="none" stroke="#000000" d="M1279.1785,-436.7048C1393.9909,-427.0071 1549.555,-412.6788 1686.2814,-396 1853.9365,-375.5484 2046.9954,-345.334 2167.5919,-325.6567"/>
<polygon fill="#000000" stroke="#000000" points="2168.2843,-329.09 2177.5887,-324.0226 2167.155,-322.1817 2168.2843,-329.09"/>
</g>
<!-- [root] meta.count&#45;boundary (count boundary fixup)&#45;&gt;[root] aws_route.acme&#45;r&#45;public&#45;to&#45;internet -->
<g id="edge24" class="edge">
<title>[root] meta.count&#45;boundary (count boundary fixup)&#45;&gt;[root] aws_route.acme&#45;r&#45;public&#45;to&#45;internet</title>
<path fill="none" stroke="#000000" d="M1266.2748,-435.9077C1364.3613,-425.8471 1481.3946,-411.4127 1529.2814,-396 1577.8554,-380.3661 1628.803,-350.6907 1661.4596,-329.6963"/>
<polygon fill="#000000" stroke="#000000" points="1663.6992,-332.4145 1670.1682,-324.0239 1659.8787,-326.549 1663.6992,-332.4145"/>
</g>
<!-- [root] meta.count&#45;boundary (count boundary fixup)&#45;&gt;[root] aws_route_table_association.private -->
<g id="edge25" class="edge">
<title>[root] meta.count&#45;boundary (count boundary fixup)&#45;&gt;[root] aws_route_table_association.private</title>
<path fill="none" stroke="#000000" d="M1268.9177,-436.0924C1360.9251,-426.9472 1479.0539,-413.4378 1583.2814,-396 1697.4781,-376.8943 1827.909,-346.5156 1909.676,-326.4176"/>
<polygon fill="#000000" stroke="#000000" points="1910.5309,-329.8117 1919.402,-324.0191 1908.8548,-323.0154 1910.5309,-329.8117"/>
</g>
<!-- [root] meta.count&#45;boundary (count boundary fixup)&#45;&gt;[root] aws_route_table_association.public -->
<g id="edge26" class="edge">
<title>[root] meta.count&#45;boundary (count boundary fixup)&#45;&gt;[root] aws_route_table_association.public</title>
<path fill="none" stroke="#000000" d="M1133.847,-432.0698C1159.5932,-412.2911 1203.5461,-380.5493 1245.2814,-360 1271.7825,-346.9516 1302.2019,-335.8452 1329.4129,-327.1595"/>
<polygon fill="#000000" stroke="#000000" points="1330.7825,-330.3983 1339.2796,-324.0699 1328.6906,-323.7181 1330.7825,-330.3983"/>
</g>
<!-- [root] meta.count&#45;boundary (count boundary fixup)&#45;&gt;[root] aws_security_group_rule.open&#45;all&#45;in&#45;icmp -->
<g id="edge27" class="edge">
<title>[root] meta.count&#45;boundary (count boundary fixup)&#45;&gt;[root] aws_security_group_rule.open&#45;all&#45;in&#45;icmp</title>
<path fill="none" stroke="#000000" d="M1094.8957,-432.025C1075.2886,-411.5944 1040.5375,-378.6686 1004.2814,-360 975.8936,-345.3828 943.2636,-334.5238 912.3189,-326.5372"/>
<polygon fill="#000000" stroke="#000000" points="912.8888,-323.0721 902.3387,-324.0439 911.1922,-329.8634 912.8888,-323.0721"/>
</g>
<!-- [root] meta.count&#45;boundary (count boundary fixup)&#45;&gt;[root] aws_security_group_rule.open&#45;all&#45;out -->
<g id="edge28" class="edge">
<title>[root] meta.count&#45;boundary (count boundary fixup)&#45;&gt;[root] aws_security_group_rule.open&#45;all&#45;out</title>
<path fill="none" stroke="#000000" d="M1111.2814,-431.7623C1111.2814,-407.201 1111.2814,-363.2474 1111.2814,-334.3541"/>
<polygon fill="#000000" stroke="#000000" points="1114.7815,-334.0896 1111.2814,-324.0896 1107.7815,-334.0897 1114.7815,-334.0896"/>
</g>
<!-- [root] meta.count&#45;boundary (count boundary fixup)&#45;&gt;[root] aws_security_group_rule.open_all_in -->
<g id="edge29" class="edge">
<title>[root] meta.count&#45;boundary (count boundary fixup)&#45;&gt;[root] aws_security_group_rule.open_all_in</title>
<path fill="none" stroke="#000000" d="M1075.1676,-432.1775C1026.9146,-408.6405 943.7265,-369.1005 911.2814,-360 904.3143,-358.0458 751.3475,-339.1796 629.1838,-324.2904"/>
<polygon fill="#000000" stroke="#000000" points="629.3077,-320.7797 618.9578,-323.0446 628.4611,-327.7283 629.3077,-320.7797"/>
</g>
<!-- [root] output.acme&#45;web&#45;server&#45;1.ip -->
<g id="node20" class="node">
<title>[root] output.acme&#45;web&#45;server&#45;1.ip</title>
<ellipse fill="none" stroke="#000000" cx="729.2814" cy="-378" rx="172.7694" ry="18"/>
<text text-anchor="middle" x="729.2814" y="-374.3" font-family="Times,serif" font-size="14.00" fill="#000000">[root] output.acme&#45;web&#45;server&#45;1.ip</text>
</g>
<!-- [root] meta.count&#45;boundary (count boundary fixup)&#45;&gt;[root] output.acme&#45;web&#45;server&#45;1.ip -->
<g id="edge30" class="edge">
<title>[root] meta.count&#45;boundary (count boundary fixup)&#45;&gt;[root] output.acme&#45;web&#45;server&#45;1.ip</title>
<path fill="none" stroke="#000000" d="M1021.7194,-433.1192C961.9758,-421.8586 883.5788,-407.0822 822.9962,-395.6635"/>
<polygon fill="#000000" stroke="#000000" points="823.5255,-392.2017 813.0502,-393.7889 822.2289,-399.0806 823.5255,-392.2017"/>
</g>
<!-- [root] output.acme&#45;web&#45;server&#45;1.private&#45;ip -->
<g id="node21" class="node">
<title>[root] output.acme&#45;web&#45;server&#45;1.private&#45;ip</title>
<ellipse fill="none" stroke="#000000" cx="209.2814" cy="-378" rx="209.0631" ry="18"/>
<text text-anchor="middle" x="209.2814" y="-374.3" font-family="Times,serif" font-size="14.00" fill="#000000">[root] output.acme&#45;web&#45;server&#45;1.private&#45;ip</text>
</g>
<!-- [root] meta.count&#45;boundary (count boundary fixup)&#45;&gt;[root] output.acme&#45;web&#45;server&#45;1.private&#45;ip -->
<g id="edge31" class="edge">
<title>[root] meta.count&#45;boundary (count boundary fixup)&#45;&gt;[root] output.acme&#45;web&#45;server&#45;1.private&#45;ip</title>
<path fill="none" stroke="#000000" d="M944.2631,-436.6682C781.2755,-423.6581 534.8634,-403.9888 373.0099,-391.0692"/>
<polygon fill="#000000" stroke="#000000" points="373.2032,-387.5736 362.9564,-390.2667 372.6462,-394.5514 373.2032,-387.5736"/>
</g>
<!-- [root] output.acme&#45;web&#45;server&#45;1.ip&#45;&gt;[root] aws_instance.acme&#45;web&#45;server&#45;1 -->
<g id="edge32" class="edge">
<title>[root] output.acme&#45;web&#45;server&#45;1.ip&#45;&gt;[root] aws_instance.acme&#45;web&#45;server&#45;1</title>
<path fill="none" stroke="#000000" d="M623.0648,-363.7321C539.0796,-352.4505 421.2205,-336.6187 330.1609,-324.3868"/>
<polygon fill="#000000" stroke="#000000" points="330.4134,-320.8894 320.0364,-323.0268 329.4814,-327.827 330.4134,-320.8894"/>
</g>
<!-- [root] output.acme&#45;web&#45;server&#45;1.private&#45;ip&#45;&gt;[root] aws_instance.acme&#45;web&#45;server&#45;1 -->
<g id="edge33" class="edge">
<title>[root] output.acme&#45;web&#45;server&#45;1.private&#45;ip&#45;&gt;[root] aws_instance.acme&#45;web&#45;server&#45;1</title>
<path fill="none" stroke="#000000" d="M205.244,-359.8314C203.5328,-352.131 201.498,-342.9743 199.5962,-334.4166"/>
<polygon fill="#000000" stroke="#000000" points="202.9593,-333.4159 197.3733,-324.4133 196.126,-334.9344 202.9593,-333.4159"/>
</g>
<!-- [root] provider.aws (close) -->
<g id="node22" class="node">
<title>[root] provider.aws (close)</title>
<ellipse fill="none" stroke="#000000" cx="1387.2814" cy="-378" rx="132.6765" ry="18"/>
<text text-anchor="middle" x="1387.2814" y="-374.3" font-family="Times,serif" font-size="14.00" fill="#000000">[root] provider.aws (close)</text>
</g>
<!-- [root] provider.aws (close)&#45;&gt;[root] aws_instance.acme&#45;web&#45;server&#45;1 -->
<g id="edge34" class="edge">
<title>[root] provider.aws (close)&#45;&gt;[root] aws_instance.acme&#45;web&#45;server&#45;1</title>
<path fill="none" stroke="#000000" d="M1259.9865,-372.8142C1023.4823,-362.9667 523.504,-341.0946 330.1594,-324.119"/>
<polygon fill="#000000" stroke="#000000" points="330.3522,-320.6223 320.0789,-323.2125 329.7252,-327.5941 330.3522,-320.6223"/>
</g>
<!-- [root] provider.aws (close)&#45;&gt;[root] aws_network_acl_rule.acme&#45;acl&#45;rule -->
<g id="edge35" class="edge">
<title>[root] provider.aws (close)&#45;&gt;[root] aws_network_acl_rule.acme&#45;acl&#45;rule</title>
<path fill="none" stroke="#000000" d="M1509.7144,-371.0845C1656.3207,-362.3742 1909.5478,-345.9695 2136.3207,-324.1676"/>
<polygon fill="#000000" stroke="#000000" points="2136.7997,-327.6377 2146.4165,-323.1917 2136.1261,-320.6702 2136.7997,-327.6377"/>
</g>
<!-- [root] provider.aws (close)&#45;&gt;[root] aws_route.acme&#45;r&#45;public&#45;to&#45;internet -->
<g id="edge36" class="edge">
<title>[root] provider.aws (close)&#45;&gt;[root] aws_route.acme&#45;r&#45;public&#45;to&#45;internet</title>
<path fill="none" stroke="#000000" d="M1454.3298,-362.3771C1499.6638,-351.8138 1559.976,-337.7605 1609.0423,-326.3276"/>
<polygon fill="#000000" stroke="#000000" points="1610.0698,-329.682 1619.0146,-324.0039 1608.4812,-322.8646 1610.0698,-329.682"/>
</g>
<!-- [root] provider.aws (close)&#45;&gt;[root] aws_route_table_association.private -->
<g id="edge37" class="edge">
<title>[root] provider.aws (close)&#45;&gt;[root] aws_route_table_association.private</title>
<path fill="none" stroke="#000000" d="M1487.5953,-366.1792C1577.4547,-355.5707 1713.1565,-339.5022 1841.6076,-324.0792"/>
<polygon fill="#000000" stroke="#000000" points="1842.1199,-327.5429 1851.6311,-322.8752 1841.2851,-320.5929 1842.1199,-327.5429"/>
</g>
<!-- [root] provider.aws (close)&#45;&gt;[root] aws_route_table_association.public -->
<g id="edge38" class="edge">
<title>[root] provider.aws (close)&#45;&gt;[root] aws_route_table_association.public</title>
<path fill="none" stroke="#000000" d="M1392.0759,-359.8314C1394.1303,-352.0463 1396.5775,-342.7729 1398.857,-334.1347"/>
<polygon fill="#000000" stroke="#000000" points="1402.2549,-334.9753 1401.4224,-324.4133 1395.4866,-333.1892 1402.2549,-334.9753"/>
</g>
<!-- [root] provider.aws (close)&#45;&gt;[root] aws_security_group_rule.open&#45;all&#45;in&#45;icmp -->
<g id="edge39" class="edge">
<title>[root] provider.aws (close)&#45;&gt;[root] aws_security_group_rule.open&#45;all&#45;in&#45;icmp</title>
<path fill="none" stroke="#000000" d="M1288.3604,-365.9894C1196.9811,-354.8944 1059.6516,-338.2203 952.9516,-325.2652"/>
<polygon fill="#000000" stroke="#000000" points="953.073,-321.7543 942.724,-324.0234 952.2292,-328.7033 953.073,-321.7543"/>
</g>
<!-- [root] provider.aws (close)&#45;&gt;[root] aws_security_group_rule.open&#45;all&#45;out -->
<g id="edge40" class="edge">
<title>[root] provider.aws (close)&#45;&gt;[root] aws_security_group_rule.open&#45;all&#45;out</title>
<path fill="none" stroke="#000000" d="M1326.0281,-362.0209C1286.1002,-351.6049 1233.604,-337.9102 1190.5104,-326.6684"/>
<polygon fill="#000000" stroke="#000000" points="1191.1814,-323.2264 1180.6217,-324.0888 1189.4144,-329.9997 1191.1814,-323.2264"/>
</g>
<!-- [root] provider.aws (close)&#45;&gt;[root] aws_security_group_rule.open_all_in -->
<g id="edge41" class="edge">
<title>[root] provider.aws (close)&#45;&gt;[root] aws_security_group_rule.open_all_in</title>
<path fill="none" stroke="#000000" d="M1264.5452,-371.1003C1116.5417,-362.3638 859.9857,-345.8922 629.0659,-324.0473"/>
<polygon fill="#000000" stroke="#000000" points="629.0711,-320.532 618.7846,-323.0694 628.4083,-327.5006 629.0711,-320.532"/>
</g>
<!-- [root] root -->
<g id="node26" class="node">
<title>[root] root</title>
<ellipse fill="none" stroke="#000000" cx="1249.2814" cy="-522" rx="58.4896" ry="18"/>
<text text-anchor="middle" x="1249.2814" y="-518.3" font-family="Times,serif" font-size="14.00" fill="#000000">[root] root</text>
</g>
<!-- [root] root&#45;&gt;[root] meta.count&#45;boundary (count boundary fixup) -->
<g id="edge45" class="edge">
<title>[root] root&#45;&gt;[root] meta.count&#45;boundary (count boundary fixup)</title>
<path fill="none" stroke="#000000" d="M1219.3375,-506.3771C1200.417,-496.5055 1175.6547,-483.586 1154.6087,-472.6055"/>
<polygon fill="#000000" stroke="#000000" points="1156.0255,-469.397 1145.5406,-467.8744 1152.7875,-475.6031 1156.0255,-469.397"/>
</g>
<!-- [root] root&#45;&gt;[root] provider.aws (close) -->
<g id="edge46" class="edge">
<title>[root] root&#45;&gt;[root] provider.aws (close)</title>
<path fill="none" stroke="#000000" d="M1296.9265,-511.4237C1321.7403,-503.5078 1350.5282,-490.1148 1368.2814,-468 1382.1992,-450.6629 1386.5985,-425.5655 1387.7159,-406.2756"/>
<polygon fill="#000000" stroke="#000000" points="1391.2153,-406.35 1388.0387,-396.2426 1384.2189,-406.1249 1391.2153,-406.35"/>
</g>
</g>
</svg>
